<svg width="13" height="13" viewBox="0 0 13 13" fill="none" xmlns="http://www.w3.org/2000/svg">
<path d="M0 0V13H13V0H0ZM1.18182 1.18182H11.8182V11.8182H1.18182V1.18182ZM3.54545 2.95455V6.21032V10.0397C7.04955 10.0397 7.7507 10.087 8.4066 9.89196C8.7907 9.77377 9.84233 9.39568 9.84233 8.06614C9.84233 7.47523 9.6652 6.47581 8.50701 6.22763V6.21032H8.28888C8.87979 5.94441 9.25142 5.44283 9.25142 4.70419C9.25142 4.5151 9.30451 2.95455 7.23633 2.95455H3.54545ZM4.72727 4.13636H7.09091C7.98259 4.13636 8.0696 4.64055 8.0696 5.01696C8.0696 5.93523 7.10864 5.90909 7.09091 5.90909H4.72727V4.13636ZM4.72727 7.09091H7.53986C8.63954 7.09091 8.66051 7.78609 8.66051 7.96573C8.66051 8.88755 7.70818 8.86364 7.59295 8.86364H4.72727V7.09091Z" fill="#58B5A9"/>
</svg>
