<svg width="21" height="23" viewBox="0 0 21 23" fill="none" xmlns="http://www.w3.org/2000/svg">
<path d="M10.5 0C10.1426 0 9.78516 0.089844 9.4668 0.269531L1.04492 5.00195C0.400391 5.36328 0 6.04102 0 6.76758V16.2324C0 16.959 0.400391 17.6367 1.04492 17.998L9.4668 22.7305C9.78516 22.9102 10.1426 23 10.5 23C10.8574 23 11.2148 22.9102 11.5332 22.7305L19.9551 18C20.5996 17.6367 21 16.959 21 16.2324V6.76758C21 6.04102 20.5996 5.36328 19.9551 5.00195L11.5332 0.269531C11.2148 0.089844 10.8574 0 10.5 0ZM10.5 5.5C12.3906 5.5 14.1387 6.37695 15.2715 7.86914L13.0801 9.13867C12.4219 8.41797 11.4863 8 10.5 8C8.57031 8 7 9.57031 7 11.5C7 13.4297 8.57031 15 10.5 15C11.4863 15 12.4219 14.582 13.0801 13.8613L15.2715 15.1309C14.1387 16.623 12.3906 17.5 10.5 17.5C7.19141 17.5 4.5 14.8086 4.5 11.5C4.5 8.19141 7.19141 5.5 10.5 5.5ZM15.5 9H16.5V10H17.5V9H18.5V10H19.5V11H18.5V12H19.5V13H18.5V14H17.5V13H16.5V14H15.5V13H14.5V12H15.5V11H14.5V10H15.5V9ZM16.5 11V12H17.5V11H16.5Z" fill="#58B5A9"/>
</svg>
