<svg width="30" height="31" viewBox="0 0 30 31" fill="none" xmlns="http://www.w3.org/2000/svg">
<path d="M13.4375 3.22913C13.265 3.22913 13.125 3.37379 13.125 3.55204V5.48954C13.125 5.66779 13.265 5.81246 13.4375 5.81246H15.3125C15.485 5.81246 15.625 5.66779 15.625 5.48954V3.55204C15.625 3.37379 15.485 3.22913 15.3125 3.22913H13.4375ZM5.9375 7.10413C5.765 7.10413 5.625 7.24879 5.625 7.42704V9.36454C5.625 9.54279 5.765 9.68746 5.9375 9.68746H7.8125C7.985 9.68746 8.125 9.54279 8.125 9.36454V7.42704C8.125 7.24879 7.985 7.10413 7.8125 7.10413H5.9375ZM9.6875 7.10413C9.515 7.10413 9.375 7.24879 9.375 7.42704V9.36454C9.375 9.54279 9.515 9.68746 9.6875 9.68746H11.5625C11.735 9.68746 11.875 9.54279 11.875 9.36454V7.42704C11.875 7.24879 11.735 7.10413 11.5625 7.10413H9.6875ZM13.4375 7.10413C13.265 7.10413 13.125 7.24879 13.125 7.42704V9.36454C13.125 9.54279 13.265 9.68746 13.4375 9.68746H15.3125C15.485 9.68746 15.625 9.54279 15.625 9.36454V7.42704C15.625 7.24879 15.485 7.10413 15.3125 7.10413H13.4375ZM22.8687 9.22957C22.7141 9.22611 22.5611 9.26218 22.4233 9.33459C22.2855 9.40699 22.1672 9.51348 22.0789 9.64457L21.814 10.0381C21.8081 10.0464 21.8024 10.0549 21.7969 10.0634C21.4078 10.6832 21.1244 11.3666 20.957 12.0841C20.9566 12.0854 20.9562 12.0866 20.9558 12.0879C20.7409 13.0236 20.8587 13.91 21.1206 14.7532C21.0658 14.7634 21.0368 14.7835 20.9827 14.7911C20.6357 14.8398 20.3509 14.8478 20.2124 14.8529H1.5625C0.710254 14.8529 0 15.5868 0 16.4674V17.1398C0 18.471 0.2292 20.3135 0.837402 22.0226C0.8386 22.0264 0.839821 22.0302 0.841064 22.034C1.53391 23.9036 2.6085 25.3697 4.04541 26.2735C5.67649 27.3016 8.03991 27.7834 10.7019 27.7834C11.9089 27.7873 13.1135 27.6738 14.2993 27.4466C15.9716 27.1307 17.5797 26.5296 19.0588 25.668C19.0617 25.6664 19.0645 25.6647 19.0674 25.663C20.3071 24.9246 21.3965 23.9771 22.3425 22.9069C23.3244 21.7962 24.1171 20.4524 24.6838 19.3737C24.9672 18.8343 25.1915 18.3615 25.3467 18.0215C25.3523 18.0091 25.3547 18.0045 25.3601 17.9925C27.0134 17.8487 28.1402 17.0114 28.7085 16.4347C29.1659 15.9863 29.5249 15.4416 29.7571 14.8352C29.7623 14.8214 29.7672 14.8076 29.7717 14.7936L29.8877 14.448C29.9508 14.2578 29.9551 14.0521 29.8999 13.8593C29.8448 13.6665 29.733 13.4962 29.5801 13.372L29.303 13.1462C29.128 13.004 28.159 12.325 26.438 12.325C26.4364 12.325 26.4347 12.325 26.4331 12.325C26.2543 12.3259 26.078 12.3601 25.8997 12.373C25.6256 11.5853 25.2484 10.9159 24.8413 10.4884C24.5625 10.1957 24.2945 9.98073 24.0857 9.83252C23.9813 9.75841 23.8913 9.70125 23.8232 9.65971C23.7552 9.61816 23.6534 9.55754 23.7244 9.60042C23.7223 9.59957 23.7203 9.59873 23.7183 9.5979L23.3154 9.35824C23.1793 9.27736 23.0257 9.23312 22.8687 9.22957ZM2.1875 10.9791C2.015 10.9791 1.875 11.1238 1.875 11.302V13.2395C1.875 13.4178 2.015 13.5625 2.1875 13.5625H4.0625C4.235 13.5625 4.375 13.4178 4.375 13.2395V11.302C4.375 11.1238 4.235 10.9791 4.0625 10.9791H2.1875ZM5.9375 10.9791C5.765 10.9791 5.625 11.1238 5.625 11.302V13.2395C5.625 13.4178 5.765 13.5625 5.9375 13.5625H7.8125C7.985 13.5625 8.125 13.4178 8.125 13.2395V11.302C8.125 11.1238 7.985 10.9791 7.8125 10.9791H5.9375ZM9.6875 10.9791C9.515 10.9791 9.375 11.1238 9.375 11.302V13.2395C9.375 13.4178 9.515 13.5625 9.6875 13.5625H11.5625C11.735 13.5625 11.875 13.4178 11.875 13.2395V11.302C11.875 11.1238 11.735 10.9791 11.5625 10.9791H9.6875ZM13.4375 10.9791C13.265 10.9791 13.125 11.1238 13.125 11.302V13.2395C13.125 13.4178 13.265 13.5625 13.4375 13.5625H15.3125C15.485 13.5625 15.625 13.4178 15.625 13.2395V11.302C15.625 11.1238 15.485 10.9791 15.3125 10.9791H13.4375ZM17.1875 10.9791C17.015 10.9791 16.875 11.1238 16.875 11.302V13.2395C16.875 13.4178 17.015 13.5625 17.1875 13.5625H19.0625C19.235 13.5625 19.375 13.4178 19.375 13.2395V11.302C19.375 11.1238 19.235 10.9791 19.0625 10.9791H17.1875ZM22.7832 11.2768C22.852 11.3182 22.8353 11.3062 22.8699 11.3273C22.874 11.3298 22.8825 11.3358 22.887 11.3386L22.7832 11.2768ZM23.1836 11.5682C23.2868 11.6505 23.3862 11.7226 23.5046 11.847C23.8594 12.2195 24.2189 12.756 24.3298 13.5385C24.3479 13.666 24.3905 13.7886 24.455 13.8989C24.5195 14.0092 24.6047 14.1051 24.7055 14.181C24.8064 14.2569 24.9208 14.3112 25.0422 14.3408C25.1637 14.3704 25.2896 14.3747 25.4126 14.3534C25.7507 14.2946 26.0944 14.2645 26.438 14.2625H26.4392C27.0843 14.2627 27.5133 14.3705 27.782 14.4757C27.6681 14.669 27.5762 14.8779 27.4158 15.0345C27.4108 15.0391 27.406 15.0437 27.4011 15.0484C26.9005 15.5578 26.2172 16.1771 24.7681 16.1168C24.5856 16.1089 24.4048 16.1562 24.248 16.253C24.248 16.253 23.8965 16.6414 23.8965 16.6415C23.8964 16.6416 23.8843 16.6663 23.8818 16.6718C23.8768 16.6827 23.8747 16.6861 23.8733 16.6895C23.8704 16.6962 23.87 16.6994 23.8684 16.7033C23.8651 16.7111 23.861 16.7198 23.8562 16.7311C23.8467 16.7535 23.8331 16.7857 23.8147 16.8282C23.7779 16.9133 23.7227 17.0386 23.6511 17.1953C23.508 17.5087 23.2985 17.9492 23.0359 18.4491C22.5106 19.449 21.7651 20.6886 20.9583 21.6013C20.1247 22.5443 19.1821 23.3573 18.1323 23.9828L18.1311 23.9841C16.8343 24.7383 15.4252 25.2654 13.96 25.5419C13.9591 25.5419 13.9583 25.5419 13.9575 25.5419C12.8854 25.7473 11.7965 25.8496 10.7056 25.8459C10.7043 25.8459 10.7031 25.8459 10.7019 25.8459C8.2764 25.8459 6.15339 25.333 5.02197 24.6198C5.02157 24.6194 5.02116 24.619 5.02075 24.6186C3.9937 23.9728 3.17471 22.9096 2.59399 21.344C2.0906 19.9251 1.875 18.2231 1.875 17.1398V16.7904H20.2295C20.2409 16.7906 20.2523 16.7906 20.2637 16.7904C20.3551 16.7869 20.7641 16.7769 21.2341 16.7109C21.7041 16.6449 22.2565 16.5423 22.7942 16.2341C22.9059 16.17 23.0038 16.0831 23.0818 15.9785C23.1598 15.874 23.2163 15.7541 23.2479 15.6262C23.2794 15.4982 23.2853 15.365 23.2653 15.2346C23.2452 15.1042 23.1995 14.9795 23.1311 14.868C22.6688 14.1156 22.5593 13.5002 22.7808 12.5357C22.8611 12.1921 23.0297 11.8828 23.1836 11.5682ZM28.1384 14.6662C28.1383 14.6661 28.1435 14.6688 28.1433 14.6687C28.1433 14.6691 28.1433 14.6695 28.1433 14.67L28.1384 14.6662Z" fill="#58B5A9"/>
</svg>
