<svg width="26" height="17" viewBox="0 0 26 17" fill="none" xmlns="http://www.w3.org/2000/svg">
<g clip-path="url(#clip0_152_271)">
<path d="M26 16.5591C25.0542 16.8301 24.4692 16.571 23.9445 15.6829L20.2118 9.86282L19.6722 9.05694L15.3132 15.7022C14.8152 16.5017 14.2928 16.8494 13.3632 16.5666L18.9451 8.12206L13.7483 0.494203C14.642 0.298391 15.2596 0.397945 15.8079 1.30008L19.6794 7.19267L23.5795 1.33217C24.0791 0.532661 24.6163 0.228945 25.5133 0.523431L23.4983 3.53422L20.7683 7.54034C20.4433 7.99811 20.4879 8.3115 20.7871 8.75345L26 16.5591ZM0.00663002 7.98097L0.463126 5.44992C1.70625 0.441019 6.80064 -1.64038 10.314 1.45458C12.3671 3.2749 12.8774 5.8499 12.7758 8.73433H1.20257C1.02882 13.9263 4.34461 17.0597 8.57183 15.4611C10.0546 14.8999 10.928 13.5912 11.3652 11.9541C11.5871 11.1337 11.9541 11.0054 12.6384 11.2399C12.2891 13.2874 11.5009 14.9979 9.83524 16.0684C7.34664 17.6707 3.79412 17.1525 1.92563 14.9256C0.812372 13.6333 0.352561 11.9963 0.14625 10.2454C0.113685 9.95601 0.0487501 9.68042 0 9.40307C0.00429001 8.92926 0.00663002 8.45566 0.00663002 7.98185V7.98097ZM1.22363 7.63308H11.6821C11.6138 3.87882 9.53962 1.21218 6.7047 1.18954C3.59288 1.16207 1.35837 3.7652 1.22343 7.63308H1.22363Z" fill="#58B5A9"/>
</g>
<defs>
<clipPath id="clip0_152_271">
<rect width="26" height="17" fill="white"/>
</clipPath>
</defs>
</svg>
