<svg width="25" height="25" viewBox="0 0 25 25" fill="none" xmlns="http://www.w3.org/2000/svg">
<path d="M12.5 2C12.7832 2 13.0488 2.10938 13.248 2.31055L22.6895 11.752C23.1035 12.1641 23.1035 12.8359 22.6895 13.248L13.248 22.6895C13.0488 22.8906 12.7832 23 12.5 23C12.2168 23 11.9512 22.8906 11.752 22.6895L2.31055 13.248C1.89648 12.8359 1.89648 12.1641 2.31055 11.752L8.4707 5.5918L9.60742 6.72852C9.33398 7.74414 9.60937 8.85156 10.3789 9.62109C10.5625 9.80469 10.7715 9.96289 11 10.0938V14.9082C10.0898 15.4336 9.5 16.4121 9.5 17.5C9.5 19.1543 10.8457 20.5 12.5 20.5C14.1543 20.5 15.5 19.1543 15.5 17.5C15.5 16.4121 14.9102 15.4336 14 14.9082V11.1211L14.6074 11.7285C14.334 12.7441 14.6094 13.8516 15.3789 14.6211C15.9453 15.1875 16.6992 15.5 17.5 15.5C18.3008 15.5 19.0547 15.1875 19.6211 14.6211C20.791 13.4512 20.791 11.5488 19.6211 10.3789C19.0566 9.81445 18.3086 9.50391 17.5098 9.50391C17.2461 9.50391 16.9824 9.53906 16.7285 9.60742L15.3926 8.27148C15.666 7.25586 15.3906 6.14844 14.6211 5.37891C14.0566 4.81445 13.3086 4.50391 12.5098 4.50391C12.2461 4.50391 11.9824 4.53906 11.7285 4.60742L10.5918 3.4707L11.752 2.31055C11.9512 2.10938 12.2168 2 12.5 2ZM12.5 1C11.9727 1 11.4453 1.20117 11.0449 1.60352L9.17773 3.4707L11.4883 5.78125C11.8027 5.59766 12.1562 5.50391 12.5098 5.50391C13.0176 5.50391 13.5254 5.69727 13.9141 6.08594C14.5723 6.74414 14.668 7.74414 14.2168 8.50977L16.4883 10.7812C16.8027 10.5977 17.1562 10.5039 17.5098 10.5039C18.0176 10.5039 18.5254 10.6973 18.9141 11.0859C19.6953 11.8672 19.6953 13.1328 18.9141 13.9141C18.5234 14.3047 18.0117 14.5 17.5 14.5C16.9883 14.5 16.4766 14.3047 16.0859 13.9141C15.4277 13.2559 15.332 12.2559 15.7832 11.4883L13.5117 9.2168C13.3496 9.3125 13.1777 9.38281 13 9.42773V15.5703C13.8613 15.793 14.5 16.5684 14.5 17.5C14.5 18.6055 13.6055 19.5 12.5 19.5C11.3965 19.5 10.5 18.6055 10.5 17.5C10.5 16.5684 11.1387 15.793 12 15.5703V9.42773C11.666 9.3418 11.3477 9.17578 11.0859 8.91406C10.4277 8.25586 10.332 7.25586 10.7832 6.49023L8.4707 4.17773L1.60352 11.0449C0.798828 11.8477 0.798828 13.1523 1.60352 13.9551L11.0449 23.3965C11.4453 23.7988 11.9727 24 12.5 24C13.0273 24 13.5547 23.7988 13.9551 23.3965L23.3965 13.9551C24.2012 13.1523 24.2012 11.8477 23.3965 11.0449L13.9551 1.60352C13.5547 1.20117 13.0273 1 12.5 1Z" fill="#58B5A9"/>
</svg>
