<svg width="26" fill="#58B5A9" height="24" viewBox="0 0 26 24" xmlns="http://www.w3.org/2000/svg">
<path fill-rule="evenodd" clip-rule="evenodd" d="M12.974 2C7.465 2 3 6.465 3 11.974C3 16.38 5.857 20.119 9.821 21.439C10.32 21.529 10.5 21.222 10.5 20.958C10.5 20.721 10.492 20.093 10.489 19.262C7.714 19.864 7.128 17.924 7.128 17.924C6.676 16.772 6.021 16.465 6.021 16.465C5.116 15.846 6.09 15.86 6.09 15.86C7.092 15.93 7.617 16.888 7.617 16.888C8.507 18.412 9.953 17.972 10.519 17.717C10.61 17.072 10.87 16.632 11.154 16.383C8.94 16.132 6.612 15.276 6.612 11.453C6.612 10.366 7.001 9.474 7.636 8.778C7.535 8.525 7.19 7.51 7.735 6.138C7.735 6.138 8.572 5.869 10.477 7.159C11.2906 6.93767 12.1298 6.8247 12.973 6.823C13.8162 6.82437 14.6555 6.93735 15.469 7.159C17.375 5.868 18.211 6.138 18.211 6.138C18.756 7.51 18.414 8.525 18.31 8.778C18.95 9.474 19.334 10.365 19.334 11.453C19.334 15.286 17.004 16.128 14.782 16.375C15.137 16.683 15.457 17.291 15.457 18.221C15.457 19.555 15.445 20.631 15.445 20.958C15.445 21.225 15.623 21.535 16.132 21.437C20.094 20.115 22.948 16.379 22.948 11.974C22.948 6.465 18.483 2 12.974 2Z"/>
</svg>
