<svg width="27" height="27" viewBox="0 0 27 27" fill="none" xmlns="http://www.w3.org/2000/svg">
<g clip-path="url(#clip0_152_353)">
<path d="M25.3097 13.2808C25.3097 11.8942 24.067 10.7701 22.5342 10.7701C22.4355 10.7701 22.3383 10.7749 22.2424 10.784L26.0546 0.613159H9.85418L13.661 10.7752C13.6052 10.7721 13.5491 10.7701 13.4923 10.7701C11.9594 10.7701 10.7168 11.8942 10.7168 13.2808C10.7168 14.4017 11.5288 15.3506 12.6496 15.6734C12.0576 16.601 11.3128 17.4364 10.4672 18.158C9.31723 19.1394 8.0012 19.8834 6.5779 20.342C4.88322 19.5545 4.08293 17.803 4.80507 16.2674C4.8866 16.0941 4.96981 15.9182 5.04944 15.7433C6.2771 15.4841 7.19193 14.4884 7.19193 13.2989C7.19193 11.9122 5.9493 10.7882 4.41642 10.7882C2.88343 10.7882 1.6408 11.9122 1.6408 13.2989C1.6408 14.1492 2.10855 14.9002 2.82342 15.3544C2.1364 16.7694 1.12664 18.2501 0.812026 19.9662C0.434975 22.0231 0.810865 24.2064 2.77733 25.4393C7.3572 28.3107 12.3286 23.6593 17.5703 22.49C19.4699 22.0662 21.5551 22.1345 23.2288 21.2577C24.4856 20.5992 25.3142 19.5079 25.5494 18.2827C25.7816 17.0724 25.443 15.8673 24.6642 14.8901C25.067 14.4543 25.3097 13.8933 25.3097 13.2808ZM16.2676 13.2897C16.2676 13.2867 16.2679 13.2838 16.2679 13.2808C16.2679 12.3703 15.7319 11.5729 14.93 11.1328L17.9599 5.59051L20.995 11.1915C20.2497 11.6417 19.7585 12.4093 19.7585 13.2808C19.7585 13.2992 19.7597 13.3172 19.7601 13.3354L16.2676 13.2897Z" fill="#020204" fill-opacity="0.61"/>
<path d="M25.9874 13.2809C25.9874 11.7558 24.7727 10.4833 23.1726 10.2114L27 0H8.90853L12.7417 10.2321C11.1973 10.5431 10.0388 11.7916 10.0388 13.2809C10.0388 14.3993 10.6922 15.3817 11.6715 15.9337C11.2005 16.5685 10.6419 17.1658 10.0018 17.712C8.98678 18.5783 7.85584 19.2353 6.63662 19.6674C5.40865 18.9696 4.88953 17.6538 5.42869 16.5074L5.47088 16.4177C5.49725 16.3616 5.52372 16.3053 5.55009 16.249C6.89882 15.8236 7.86966 14.6622 7.86966 13.2989C7.86966 11.5763 6.32043 10.175 4.41619 10.175C2.51195 10.175 0.962828 11.5763 0.962828 13.2989C0.962828 14.1683 1.35781 14.9556 1.99357 15.5225C1.8783 15.7448 1.75711 15.9707 1.63255 16.2022C1.05121 17.2823 0.392347 18.5065 0.143125 19.866C-0.35184 22.5659 0.446453 24.7242 2.39098 25.9433C3.57096 26.6831 4.7692 26.9741 5.97502 26.974C8.24566 26.9739 10.5424 25.942 12.7889 24.9326C14.4069 24.2057 16.0799 23.454 17.7325 23.0854C18.3473 22.9482 18.9801 22.8657 19.6499 22.7783C20.9782 22.6049 22.3518 22.4257 23.5685 21.7883C24.9787 21.0494 25.9442 19.8099 26.2171 18.3877C26.4515 17.1668 26.1693 15.944 25.4815 14.907C25.8022 14.433 25.9874 13.8762 25.9874 13.2809ZM24.6317 13.2809C24.6317 14.3272 23.6907 15.1785 22.5339 15.1785C21.3774 15.1785 20.4363 14.3272 20.4363 13.2809C20.4363 12.2345 21.3774 11.3833 22.5339 11.3833C23.6907 11.3833 24.6317 12.2345 24.6317 13.2809ZM25.1088 1.22635L21.7291 10.2435C21.5826 10.2753 21.4398 10.3153 21.3011 10.3635L17.9624 4.20236L14.614 10.3271C14.4693 10.2819 14.3203 10.2448 14.1676 10.2174L10.7995 1.22635H25.1088ZM13.4922 11.3833C14.6489 11.3833 15.5899 12.2345 15.5899 13.2809C15.5899 14.3272 14.6489 15.1785 13.4922 15.1785C12.3356 15.1785 11.3945 14.3272 11.3945 13.2809C11.3945 12.2345 12.3356 11.3833 13.4922 11.3833ZM4.41619 11.4013C5.57297 11.4013 6.51396 12.2526 6.51396 13.2989C6.51396 14.3452 5.57297 15.1965 4.41619 15.1965C3.25962 15.1965 2.31852 14.3452 2.31852 13.2989C2.31852 12.2526 3.25962 11.4013 4.41619 11.4013ZM24.8813 18.1779C24.6773 19.2415 23.951 20.1706 22.8889 20.727C21.8989 21.2458 20.7125 21.4006 19.4564 21.5644C18.7835 21.6522 18.0876 21.743 17.4078 21.8947C15.6104 22.2956 13.8695 23.0778 12.1859 23.8343C8.81666 25.3481 5.90689 26.6554 3.16333 24.9353C1.15362 23.6754 1.24643 21.3441 1.48057 20.0666C1.69752 18.8831 2.28414 17.7931 2.85146 16.739C2.94965 16.5565 3.04499 16.3778 3.13854 16.2003C3.41993 16.3021 3.71915 16.3714 4.03102 16.4029C3.45358 18.127 4.36177 20.0016 6.26791 20.8874L6.52873 21.0087L6.80506 20.9197C8.312 20.4342 9.70049 19.6551 10.9322 18.6041C11.7283 17.9247 12.4125 17.173 12.9751 16.3697C13.1438 16.3927 13.3165 16.4048 13.4922 16.4048C15.3964 16.4048 16.9457 15.0035 16.9457 13.2809C16.9457 12.3545 16.4971 11.5214 15.7867 10.9487L17.957 6.97869L20.1494 11.0244C19.4916 11.5936 19.0806 12.3943 19.0806 13.2809C19.0806 15.0035 20.6297 16.4048 22.5339 16.4048C23.2656 16.4048 23.9443 16.1974 24.5032 15.845C24.8914 16.5637 25.036 17.3724 24.8813 18.1779Z" fill="#58B5A9"/>
</g>
<defs>
<clipPath id="clip0_152_353">
<rect width="27" height="27" fill="white"/>
</clipPath>
</defs>
</svg>
