<svg width="35" height="35" viewBox="0 0 35 35" fill="none" xmlns="http://www.w3.org/2000/svg">
<path d="M8.47689 6C7.41989 6 6.58463 6.54056 6.18913 7.47656C6.0643 7.76569 6.00117 8.0723 6 8.38843C5.99883 9.4358 6.69882 10.2859 7.11882 10.7944C7.19232 10.8833 7.25845 10.9625 7.32845 11.0581L7.51758 11.2998C7.70541 11.5372 7.91931 11.8064 7.98698 11.9414C8.00915 12.0033 8.03846 12.1118 8.07813 12.249C8.26129 12.8846 8.60314 14.066 9.14681 14.9648C9.36615 15.3271 9.67482 15.7824 9.89649 16.103C9.74832 16.8185 9.49772 18.1365 9.49772 18.9375C9.49772 20.3438 9.80015 21.4731 10.4593 22.5059C10.7031 22.8749 11.4472 24 12.7061 24C13.1529 24 13.8954 23.8317 14.096 22.7629C14.9885 23.8733 16.4977 25.2656 18.8311 26.25C18.8311 26.25 14.457 21.3286 13.6882 18.2607C13.6882 18.2607 12.8515 19.0785 12.141 20.748C11.9286 20.2328 11.8311 19.6519 11.8311 18.9375C11.8311 18.2321 12.1528 16.6553 12.2777 16.1074L12.387 15.6306L12.0999 15.2285C12.0953 15.2206 11.5076 14.4025 11.1634 13.8333C10.7714 13.1853 10.4823 12.1825 10.3272 11.6448C10.2513 11.3827 10.1917 11.1929 10.1357 11.0647C9.93158 10.6383 9.63262 10.2639 9.37012 9.93311L9.22429 9.74634C9.15079 9.64396 9.05368 9.52533 8.94401 9.39258C8.73051 9.13383 8.33306 8.65166 8.34473 8.34229L8.47461 8.25439L8.47689 8.25C9.40439 8.25 10.5991 8.88489 11.0495 9.12451C11.1965 9.20214 11.3045 9.25577 11.3617 9.28052L11.5645 9.36621L11.9632 9.37939C12.4847 9.39064 14.0698 9.4264 15.1898 9.8584C17.2326 10.6459 18.3621 11.4342 19.5101 12.873C22.2214 16.2728 23.2218 20.6756 23.2311 20.7195L23.377 21.3545L24.015 21.5544C24.0371 21.5623 25.8228 22.1377 27.4876 23.6418C25.3935 24.1413 24.6644 25.125 24.6644 25.125C24.6644 25.125 25.2197 26.169 27.8727 27.7969C29.4769 28.7812 30.3519 29.4844 31.6644 30.75C31.6644 30.75 30.3527 27.9373 28.5199 25.6963C29.9152 25.2654 31.6302 25.0415 31.6302 25.0415L30.5684 23.6221C28.8207 21.2854 26.477 20.1062 25.3617 19.6472C24.9743 18.223 23.8045 14.5665 21.3604 11.502C19.9615 9.74808 18.473 8.69923 16.0557 7.7666C14.6242 7.21535 12.9029 7.14959 12.1364 7.13159C11.4656 6.77609 9.97489 6 8.47689 6ZM13.2165 10.5C13.2165 10.5 12.7061 10.5 12.1227 10.6406L13.7269 12.7478C14.1644 12.1876 14.1644 11.5327 14.1644 11.5327C14.1644 11.5327 13.8733 10.7812 13.2165 10.5Z" fill="#58B5A9"/>
</svg>
