<svg width="28" height="27" viewBox="0 0 28 27" fill="none" xmlns="http://www.w3.org/2000/svg">
<path d="M3.64584 1.125C2.58884 1.125 1.75357 1.66556 1.35807 2.60156C1.23324 2.89069 1.17011 3.1973 1.16895 3.51343C1.16778 4.5608 1.86776 5.41093 2.28776 5.91943C2.36126 6.00831 2.4274 6.08748 2.4974 6.18311L2.68653 6.4248C2.87436 6.66218 3.08826 6.93141 3.15593 7.06641C3.17809 7.12828 3.20741 7.23677 3.24707 7.37402C3.43024 8.00965 3.77209 9.19097 4.31576 10.0898C4.53509 10.4521 4.84377 10.9074 5.06543 11.228C4.91726 11.9435 4.66667 13.2615 4.66667 14.0625C4.66667 15.4688 4.96909 16.5981 5.62826 17.6309C5.87209 17.9999 6.61617 19.125 7.875 19.125C8.32184 19.125 9.06431 18.9567 9.26498 17.8879C10.1575 18.9983 11.6667 20.3906 14 21.375C14 21.375 9.62593 16.4536 8.8571 13.3857C8.8571 13.3857 8.0204 14.2035 7.3099 15.873C7.09757 15.3578 7 14.7769 7 14.0625C7 13.3571 7.32178 11.7803 7.44662 11.2324L7.55599 10.7556L7.26888 10.3535C7.26422 10.3456 6.67653 9.5275 6.33236 8.95825C5.94036 8.31025 5.65126 7.30753 5.4961 6.76978C5.42026 6.50765 5.36069 6.31795 5.30469 6.1897C5.10052 5.76332 4.80156 5.38886 4.53906 5.05811L4.39323 4.87134C4.31973 4.76896 4.22262 4.65033 4.11296 4.51758C3.89946 4.25883 3.50201 3.77666 3.51367 3.46729L3.64356 3.37939L3.64584 3.375C4.57334 3.375 5.76809 4.00989 6.21843 4.24951C6.36543 4.32714 6.47343 4.38077 6.5306 4.40552L6.7334 4.49121L7.13216 4.50439C7.65366 4.51564 9.23873 4.5514 10.3587 4.9834C12.4016 5.7709 13.531 6.55917 14.679 7.99805C17.3904 11.3978 18.3907 15.8006 18.4001 15.8445L18.5459 16.4795L19.1839 16.6794C19.2061 16.6873 20.9917 17.2627 22.6566 18.7668C20.5624 19.2663 19.8333 20.25 19.8333 20.25C19.8333 20.25 20.3887 21.294 23.0417 22.9219C24.6458 23.9062 25.5208 24.6094 26.8333 25.875C26.8333 25.875 25.5216 23.0623 23.6888 20.8213C25.0841 20.3904 26.7992 20.1665 26.7992 20.1665L25.7373 18.7471C23.9896 16.4104 21.6459 15.2312 20.5306 14.7722C20.1433 13.348 18.9735 9.69145 16.5293 6.62695C15.1305 4.87308 13.6419 3.82423 11.2246 2.8916C9.79311 2.34035 8.07184 2.27459 7.30534 2.25659C6.63451 1.90109 5.14384 1.125 3.64584 1.125ZM8.38542 5.625C8.38542 5.625 7.875 5.625 7.29167 5.76562L8.89584 7.8728C9.33334 7.31255 9.33334 6.65771 9.33334 6.65771C9.33334 6.65771 9.04225 5.90625 8.38542 5.625Z" fill="#58B5A9"/>
</svg>
