<svg width="24" height="25" viewBox="0 0 24 25" fill="none" xmlns="http://www.w3.org/2000/svg">
<path d="M9.58492 12.1792H13.9129C13.9129 12.1792 16.3449 12.2198 16.3449 9.73125V5.61562C16.3449 5.61562 16.7139 3.125 11.9359 3.125C7.36192 3.125 7.64692 5.19062 7.64692 5.19062L7.65292 7.33125H12.0159V7.97396H5.91992C5.91992 7.97396 2.99292 7.62813 2.99292 12.4344C2.99292 17.2406 5.54792 17.0698 5.54792 17.0698H7.07192V14.8396C7.07192 14.8396 6.98892 12.1792 9.58492 12.1792ZM9.52892 6.2C9.32073 6.2 9.12106 6.11385 8.97384 5.9605C8.82662 5.80715 8.74392 5.59916 8.74392 5.38229C8.74392 5.16542 8.82662 4.95743 8.97384 4.80408C9.12106 4.65073 9.32073 4.56458 9.52892 4.56458C9.73711 4.56458 9.93678 4.65073 10.084 4.80408C10.2312 4.95743 10.3139 5.16542 10.3139 5.38229C10.3139 5.59916 10.2312 5.80715 10.084 5.9605C9.93678 6.11385 9.73711 6.2 9.52892 6.2Z" fill="#58B5A9"/>
<path d="M18.452 7.84583H16.928V10.076C16.928 10.076 17.011 12.7365 14.415 12.7365H10.087C10.087 12.7365 7.65504 12.6948 7.65504 15.1844V19.3C7.65504 19.3 7.28604 21.7906 12.064 21.7906C16.637 21.7906 16.352 19.725 16.352 19.725L16.346 17.5854H11.983V16.9427H18.08C18.08 16.9427 21.007 17.2885 21.007 12.4823C21.007 7.67604 18.452 7.84583 18.452 7.84583ZM14.471 18.7167C14.6792 18.7167 14.8789 18.8028 15.0261 18.9562C15.1733 19.1095 15.256 19.3175 15.256 19.5344C15.256 19.7512 15.1733 19.9592 15.0261 20.1126C14.8789 20.2659 14.6792 20.3521 14.471 20.3521C14.2628 20.3521 14.0632 20.2659 13.916 20.1126C13.7687 19.9592 13.686 19.7512 13.686 19.5344C13.686 19.3175 13.7687 19.1095 13.916 18.9562C14.0632 18.8028 14.2628 18.7167 14.471 18.7167Z" fill="#58B5A9"/>
</svg>
