<svg width="35" height="35" viewBox="0 0 35 35" fill="none" xmlns="http://www.w3.org/2000/svg">
<path d="M17.5001 19.002C18.9378 19.002 20.1032 17.8366 20.1032 16.3989C20.1032 14.9612 18.9378 13.7958 17.5001 13.7958C16.0624 13.7958 14.897 14.9612 14.897 16.3989C14.897 17.8366 16.0624 19.002 17.5001 19.002Z" fill="#58B5A9"/>
<path d="M10.2113 21.5746L9.63522 21.4273C5.35647 20.3467 2.9021 18.5092 2.9021 16.3931C2.9021 14.2756 5.35793 12.4396 9.63522 11.359L10.2113 11.2131L10.3731 11.7833C10.8056 13.2762 11.3597 14.7312 12.0298 16.1335L12.1538 16.3931L12.0298 16.6527C11.359 18.0571 10.8033 19.5125 10.3731 21.0058L10.2113 21.5746V21.5746ZM9.36981 12.686C6.11918 13.6019 4.12272 14.999 4.12272 16.3931C4.12272 17.7844 6.11773 19.1829 9.36981 20.0973C9.76793 18.8315 10.2492 17.5933 10.8063 16.3931C10.2451 15.1909 9.76525 13.9525 9.36981 12.686V12.686ZM24.7873 21.5746L24.6269 21.0029C24.1933 19.5097 23.6387 18.0544 22.9688 16.6513L22.8448 16.3931L22.9688 16.1321C23.6396 14.7306 24.1923 13.2738 24.6269 11.7804L24.7873 11.2117L25.3633 11.3575C29.6436 12.4381 32.0965 14.2742 32.0965 16.3931C32.0965 18.5106 29.6421 20.3467 25.3633 21.4273L24.7873 21.5746V21.5746ZM24.1894 16.3931C24.7727 17.656 25.2583 18.8985 25.6288 20.0973C28.8808 19.1829 30.8773 17.7844 30.8773 16.3931C30.8773 14.999 28.8823 13.6033 25.6288 12.686C25.231 13.9521 24.7502 15.1904 24.1894 16.3931V16.3931Z" fill="#58B5A9"/>
<path d="M9.36094 12.6802L9.20053 12.1115C7.99594 7.87066 8.36052 4.83296 10.2024 3.77421C12.0034 2.7315 14.9011 3.96379 17.9359 7.07733L18.3501 7.50316L17.9359 7.92754C16.8581 9.04854 15.8729 10.2551 14.9901 11.5355L14.8253 11.7717L14.5395 11.795C12.9872 11.917 11.4475 12.1652 9.93553 12.5373L9.36094 12.6802V12.6802ZM11.668 4.61712C11.3414 4.61712 11.0526 4.68858 10.8091 4.82858C9.60157 5.52421 9.38865 7.9465 10.2199 11.2161C11.5193 10.9288 12.8303 10.7232 14.1516 10.608C14.9165 9.52303 15.7509 8.48885 16.6497 7.51191C14.7495 5.66421 12.9557 4.61712 11.668 4.61712V4.61712ZM23.3303 29.3855C21.5978 29.3855 19.3724 28.0788 17.0624 25.7075L16.6497 25.2832L17.0624 24.8602C18.1405 23.7374 19.1261 22.5294 20.0097 21.248L20.173 21.0146L20.4559 20.9869C22.0088 20.8672 23.5491 20.6199 25.0614 20.2475L25.6374 20.1017L25.7993 20.6719C26.998 24.9098 26.6349 27.9519 24.7959 29.0107C24.3494 29.2638 23.8435 29.3931 23.3303 29.3855V29.3855ZM18.3501 25.273C20.2489 27.1207 22.0441 28.1692 23.3303 28.1692C23.6584 28.1692 23.9472 28.0963 24.1893 27.9577C25.3982 27.2607 25.6126 24.834 24.7784 21.5644C23.4805 21.8532 22.168 22.0602 20.8439 22.1755C20.0822 23.2621 19.2491 24.2969 18.3501 25.273V25.273Z" fill="#58B5A9"/>
<path d="M25.6375 12.6802L25.0615 12.5358C23.5493 12.1625 22.0089 11.9143 20.456 11.7935L20.1731 11.7687L20.0098 11.5325C19.1274 10.2515 18.1417 9.0448 17.0625 7.92457L16.6498 7.5002L17.0625 7.07728C20.0958 3.9652 22.9921 2.7329 24.796 3.77415C26.6365 4.83436 27.0025 7.87207 25.7994 12.1114L25.6375 12.6802ZM20.844 10.6079C22.2352 10.7319 23.5535 10.9404 24.7785 11.216C25.6112 7.94645 25.3983 5.52415 24.1894 4.82707C22.9877 4.13145 20.7258 5.19603 18.3502 7.51186C19.2485 8.48895 20.0827 9.52145 20.844 10.6079ZM11.6681 29.3854C11.155 29.3927 10.6491 29.2634 10.2025 29.0106C8.36061 27.9519 7.99603 24.9112 9.19916 20.6719L9.35666 20.1017L9.9327 20.2475C11.3385 20.6019 12.8873 20.8512 14.5381 20.9869L14.821 21.0146L14.9858 21.2479C15.8667 22.5283 16.8525 23.7373 17.9317 24.8602L18.3458 25.2831L17.9317 25.7075C15.6231 28.0802 13.3977 29.3854 11.6681 29.3854V29.3854ZM10.22 21.5658C9.38874 24.8354 9.60166 27.2621 10.8092 27.9592C12.0123 28.6446 14.2669 27.5873 16.6498 25.2729C15.7514 24.2957 14.9169 23.2615 14.1517 22.1769C12.8291 22.0599 11.5157 21.8558 10.22 21.5658V21.5658Z" fill="#58B5A9"/>
<path d="M17.4999 22.3315C16.498 22.3315 15.4699 22.2892 14.4374 22.2032L14.1516 22.1784L13.9868 21.9421C13.4045 21.1049 12.8567 20.2442 12.3447 19.3623C11.8364 18.478 11.3641 17.5736 10.9287 16.6513L10.8062 16.3932L10.9287 16.1321C11.3647 15.2105 11.8357 14.3063 12.3447 13.4225C12.8507 12.5534 13.4034 11.6842 13.9868 10.8413L14.1516 10.608L14.4374 10.5817C16.4745 10.4111 18.5224 10.4111 20.5595 10.5817L20.8424 10.6094L21.0072 10.8427C22.1736 12.518 23.198 14.2878 24.0697 16.1336L24.1907 16.3946L24.0697 16.6527C23.2004 18.4998 22.1759 20.2698 21.0072 21.9436L20.8424 22.1798L20.5595 22.2046C19.5299 22.2877 18.5003 22.3315 17.4999 22.3315V22.3315ZM14.8253 21.0132C16.6264 21.1488 18.3734 21.1488 20.173 21.0132C21.1777 19.542 22.0707 17.9977 22.8447 16.3932C22.0734 14.7872 21.1803 13.2427 20.173 11.7732C18.3931 11.6361 16.6053 11.6361 14.8253 11.7732C13.8172 13.2421 12.924 14.7867 12.1537 16.3932C12.9293 17.9968 13.8223 19.541 14.8253 21.0132V21.0132Z" fill="#58B5A9"/>
</svg>
