<svg width="36" height="36" viewBox="0 0 36 36" fill="none" xmlns="http://www.w3.org/2000/svg">
<path d="M18 19.5449C19.4788 19.5449 20.6775 18.3462 20.6775 16.8674C20.6775 15.3887 19.4788 14.1899 18 14.1899C16.5213 14.1899 15.3225 15.3887 15.3225 16.8674C15.3225 18.3462 16.5213 19.5449 18 19.5449Z" fill="#58B5A9"/>
<path d="M10.5031 22.191L9.91061 22.0395C5.50961 20.928 2.98511 19.038 2.98511 16.8615C2.98511 14.6835 5.51111 12.795 9.91061 11.6835L10.5031 11.5335L10.6696 12.12C11.1144 13.6555 11.6843 15.152 12.3736 16.5945L12.5011 16.8615L12.3736 17.1285C11.6836 18.573 11.1121 20.07 10.6696 21.606L10.5031 22.191V22.191ZM9.63761 13.0485C6.29411 13.9905 4.24061 15.4275 4.24061 16.8615C4.24061 18.2925 6.29261 19.731 9.63761 20.6715C10.0471 19.3695 10.5421 18.096 11.1151 16.8615C10.538 15.6249 10.0443 14.3511 9.63761 13.0485V13.0485ZM25.4956 22.191L25.3306 21.603C24.8846 20.0671 24.3142 18.5702 23.6251 17.127L23.4976 16.8615L23.6251 16.593C24.3151 15.1515 24.8836 13.653 25.3306 12.117L25.4956 11.532L26.0881 11.682C30.4906 12.7935 33.0136 14.682 33.0136 16.8615C33.0136 19.0395 30.4891 20.928 26.0881 22.0395L25.4956 22.191V22.191ZM24.8806 16.8615C25.4806 18.1605 25.9801 19.4385 26.3611 20.6715C29.7061 19.731 31.7596 18.2925 31.7596 16.8615C31.7596 15.4275 29.7076 13.992 26.3611 13.0485C25.952 14.3507 25.4574 15.6244 24.8806 16.8615V16.8615Z" fill="#58B5A9"/>
<path d="M9.62841 13.0425L9.46341 12.4575C8.22441 8.0955 8.59941 4.971 10.4939 3.882C12.3464 2.8095 15.3269 4.077 18.4484 7.2795L18.8744 7.7175L18.4484 8.154C17.3397 9.30703 16.3264 10.5481 15.4184 11.865L15.2489 12.108L14.9549 12.132C13.3583 12.2574 11.7745 12.5127 10.2194 12.8955L9.62841 13.0425V13.0425ZM12.0014 4.749C11.6654 4.749 11.3684 4.8225 11.1179 4.9665C9.87591 5.682 9.65691 8.1735 10.5119 11.5365C11.8484 11.241 13.1969 11.0295 14.5559 10.911C15.3427 9.79508 16.201 8.73135 17.1254 7.7265C15.1709 5.826 13.3259 4.749 12.0014 4.749V4.749ZM23.9969 30.225C22.2149 30.225 19.9259 28.881 17.5499 26.442L17.1254 26.0055L17.5499 25.5705C18.6588 24.4156 19.6726 23.1731 20.5814 21.855L20.7494 21.615L21.0404 21.5865C22.6376 21.4633 24.2219 21.209 25.7774 20.826L26.3699 20.676L26.5364 21.2625C27.7694 25.6215 27.3959 28.7505 25.5044 29.8395C25.0452 30.0998 24.5248 30.2329 23.9969 30.225V30.225ZM18.8744 25.995C20.8274 27.8955 22.6739 28.974 23.9969 28.974C24.3344 28.974 24.6314 28.899 24.8804 28.7565C26.1239 28.0395 26.3444 25.5435 25.4864 22.1805C24.1514 22.4775 22.8014 22.6905 21.4394 22.809C20.656 23.9267 19.7991 24.991 18.8744 25.995V25.995Z" fill="#58B5A9"/>
<path d="M26.37 13.0425L25.7775 12.894C24.2221 12.5101 22.6378 12.2547 21.0405 12.1305L20.7495 12.105L20.5815 11.862C19.6739 10.5444 18.6601 9.30328 17.55 8.15105L17.1255 7.71455L17.55 7.27955C20.67 4.07855 23.649 2.81105 25.5045 3.88205C27.3975 4.97255 27.774 8.09705 26.5365 12.4575L26.37 13.0425ZM21.4395 10.911C22.8705 11.0385 24.2265 11.253 25.4865 11.5365C26.343 8.17355 26.124 5.68205 24.8805 4.96505C23.6445 4.24955 21.318 5.34455 18.8745 7.72655C19.7985 8.73155 20.6565 9.79355 21.4395 10.911ZM12.0015 30.225C11.4737 30.2326 10.9534 30.0995 10.494 29.8395C8.59951 28.7505 8.22451 25.623 9.46201 21.2625L9.62401 20.676L10.2165 20.826C11.6625 21.1905 13.2555 21.447 14.9535 21.5865L15.2445 21.615L15.414 21.855C16.32 23.172 17.334 24.4155 18.444 25.5705L18.87 26.0055L18.444 26.442C16.0695 28.8825 13.7805 30.225 12.0015 30.225V30.225ZM10.512 22.182C9.65701 25.545 9.87601 28.041 11.118 28.758C12.3555 29.463 14.6745 28.3755 17.1255 25.995C16.2014 24.9899 15.3432 23.9262 14.556 22.8105C13.1957 22.6902 11.8447 22.4803 10.512 22.182V22.182Z" fill="#58B5A9"/>
<path d="M18 22.9694C16.9695 22.9694 15.912 22.9259 14.85 22.8374L14.556 22.8119L14.3865 22.5689C13.7876 21.7078 13.2242 20.8226 12.6975 19.9154C12.1747 19.0059 11.6888 18.0756 11.241 17.1269L11.115 16.8614L11.241 16.5929C11.6895 15.6449 12.174 14.7149 12.6975 13.8059C13.218 12.9119 13.7865 12.0179 14.3865 11.1509L14.556 10.9109L14.85 10.8839C16.9453 10.7084 19.0517 10.7084 21.147 10.8839L21.438 10.9124L21.6075 11.1524C22.8072 12.8756 23.8608 14.6959 24.7575 16.5944L24.882 16.8629L24.7575 17.1284C23.8633 19.0283 22.8095 20.8488 21.6075 22.5704L21.438 22.8134L21.147 22.8389C20.088 22.9244 19.029 22.9694 18 22.9694V22.9694ZM15.249 21.6134C17.1015 21.7529 18.8985 21.7529 20.7495 21.6134C21.7828 20.1003 22.7014 18.5118 23.4975 16.8614C22.7042 15.2096 21.7855 13.6209 20.7495 12.1094C18.9187 11.9684 17.0798 11.9684 15.249 12.1094C14.2121 13.6204 13.2934 15.2091 12.501 16.8614C13.2988 18.5109 14.2173 20.0992 15.249 21.6134V21.6134Z" fill="#58B5A9"/>
</svg>
