<svg width="30" height="30" viewBox="0 0 30 30" fill="none" xmlns="http://www.w3.org/2000/svg">
<path d="M19.5762 19.4362C19.9992 19.3949 20.3897 19.1914 20.6659 18.8684C20.9421 18.5454 21.0824 18.1279 21.0574 17.7037C21.0379 17.268 20.8521 16.8563 20.5381 16.5535C20.2242 16.2508 19.8061 16.0799 19.3699 16.0762H19.3099C18.8625 16.0922 18.4397 16.285 18.1343 16.6124C17.829 16.9398 17.666 17.375 17.6812 17.8224C17.7112 18.2962 17.9049 18.6812 18.1699 18.9612C17.1362 20.9724 15.5824 22.4537 13.2274 23.6962C11.6449 24.5249 9.97242 24.8362 8.34617 24.6137C6.98492 24.4224 5.92117 23.8137 5.26742 22.8374C4.29242 21.3562 4.20242 19.7599 5.01617 18.1624C5.51248 17.2094 6.22165 16.3834 7.08867 15.7487C6.91027 15.2531 6.77191 14.7439 6.67492 14.2262C2.29242 17.3637 2.73992 21.6537 4.06992 23.6812C5.06242 25.1612 7.08867 26.1074 9.30743 26.1074C9.89992 26.1074 10.5224 26.0637 11.1287 25.9149C14.9749 25.1749 17.8899 22.8674 19.5624 19.4649L19.5762 19.4362Z" fill="#58B5A9"/>
<path d="M24.8588 15.7363C22.5663 13.0438 19.1926 11.565 15.3451 11.565H14.8413C14.5913 11.0175 14.0151 10.6763 13.3626 10.6763H13.3176C12.3876 10.6763 11.6613 11.4763 11.6913 12.4075C11.7201 13.295 12.4751 14.035 13.3788 14.035H13.4526C13.7725 14.0229 14.0821 13.9188 14.3444 13.7353C14.6066 13.5517 14.8104 13.2964 14.9313 13H15.4801C17.7601 13 19.9188 13.665 21.8876 14.9675C23.3951 15.9575 24.4776 17.26 25.0838 18.8138C25.6151 20.0875 25.5863 21.33 25.0401 22.3675C24.1963 23.995 22.7751 24.8525 20.8976 24.8525C19.7138 24.8525 18.5588 24.4825 17.9663 24.2163C17.6126 24.51 17.0188 24.9988 16.5888 25.295C17.8913 25.8863 19.2088 26.2275 20.4801 26.2275C23.3663 26.2275 25.5088 24.6 26.3251 23.0313C27.2113 21.2538 27.1388 18.265 24.8738 15.7075L24.8588 15.7363Z" fill="#58B5A9"/>
<path d="M9.55866 19.9688C9.58741 20.8563 10.3412 21.5963 11.2462 21.5963H11.3062C11.5285 21.5912 11.7477 21.5416 11.9506 21.4506C12.1535 21.3595 12.3362 21.2288 12.4879 21.0661C12.6395 20.9034 12.7571 20.7119 12.8337 20.5031C12.9102 20.2942 12.9442 20.0722 12.9337 19.85C12.9337 18.9625 12.1637 18.2238 11.2612 18.2238H11.2012C11.1412 18.2238 11.0537 18.2238 10.9787 18.2512C9.75116 16.18 9.23241 13.9587 9.42616 11.565C9.54366 9.75875 10.1349 8.19 11.2012 6.8875C12.0887 5.7775 13.7612 5.23 14.9012 5.2C18.0962 5.14 19.4287 9.1225 19.5312 10.705L21.0112 11.1475C20.6699 6.295 17.6524 3.75 14.7662 3.75C12.0587 3.75 9.55866 5.7175 8.55241 8.605C7.17491 12.4513 8.07866 16.15 9.76616 19.11C9.61866 19.3025 9.52991 19.6425 9.55866 19.9688Z" fill="#58B5A9"/>
</svg>
