<svg width="36" height="36" viewBox="0 0 36 36" fill="none" xmlns="http://www.w3.org/2000/svg">
<path d="M22.5762 22.4362C22.9992 22.3949 23.3897 22.1914 23.6659 21.8684C23.9421 21.5454 24.0824 21.1279 24.0574 20.7037C24.0379 20.268 23.8521 19.8563 23.5381 19.5535C23.2242 19.2508 22.8061 19.0799 22.3699 19.0762H22.3099C21.8625 19.0922 21.4397 19.285 21.1343 19.6124C20.829 19.9398 20.666 20.375 20.6812 20.8224C20.7112 21.2962 20.9049 21.6812 21.1699 21.9612C20.1362 23.9724 18.5824 25.4537 16.2274 26.6962C14.6449 27.5249 12.9724 27.8362 11.3462 27.6137C9.98492 27.4224 8.92117 26.8137 8.26742 25.8374C7.29242 24.3562 7.20242 22.7599 8.01617 21.1624C8.51248 20.2094 9.22165 19.3834 10.0887 18.7487C9.91027 18.2531 9.77191 17.7439 9.67492 17.2262C5.29242 20.3637 5.73992 24.6537 7.06992 26.6812C8.06242 28.1612 10.0887 29.1074 12.3074 29.1074C12.8999 29.1074 13.5224 29.0637 14.1287 28.9149C17.9749 28.1749 20.8899 25.8674 22.5624 22.4649L22.5762 22.4362Z" fill="#58B5A9"/>
<path d="M27.8588 18.7363C25.5663 16.0438 22.1926 14.565 18.3451 14.565H17.8413C17.5913 14.0175 17.0151 13.6763 16.3626 13.6763H16.3176C15.3876 13.6763 14.6613 14.4763 14.6913 15.4075C14.7201 16.295 15.4751 17.035 16.3788 17.035H16.4526C16.7725 17.0229 17.0821 16.9188 17.3444 16.7353C17.6066 16.5517 17.8104 16.2964 17.9313 16H18.4801C20.7601 16 22.9188 16.665 24.8876 17.9675C26.3951 18.9575 27.4776 20.26 28.0838 21.8138C28.6151 23.0875 28.5863 24.33 28.0401 25.3675C27.1963 26.995 25.7751 27.8525 23.8976 27.8525C22.7138 27.8525 21.5588 27.4825 20.9663 27.2163C20.6126 27.51 20.0188 27.9988 19.5888 28.295C20.8913 28.8863 22.2088 29.2275 23.4801 29.2275C26.3663 29.2275 28.5088 27.6 29.3251 26.0313C30.2113 24.2538 30.1388 21.265 27.8738 18.7075L27.8588 18.7363Z" fill="#58B5A9"/>
<path d="M12.5587 22.9688C12.5874 23.8563 13.3412 24.5963 14.2462 24.5963H14.3062C14.5285 24.5912 14.7477 24.5416 14.9506 24.4506C15.1535 24.3595 15.3362 24.2288 15.4879 24.0661C15.6395 23.9034 15.7571 23.7119 15.8337 23.5031C15.9102 23.2942 15.9442 23.0722 15.9337 22.85C15.9337 21.9625 15.1637 21.2238 14.2612 21.2238H14.2012C14.1412 21.2238 14.0537 21.2238 13.9787 21.2512C12.7512 19.18 12.2324 16.9587 12.4262 14.565C12.5437 12.7587 13.1349 11.19 14.2012 9.8875C15.0887 8.7775 16.7612 8.23 17.9012 8.2C21.0962 8.14 22.4287 12.1225 22.5312 13.705L24.0112 14.1475C23.6699 9.295 20.6524 6.75 17.7662 6.75C15.0587 6.75 12.5587 8.7175 11.5524 11.605C10.1749 15.4513 11.0787 19.15 12.7662 22.11C12.6187 22.3025 12.5299 22.6425 12.5587 22.9688Z" fill="#58B5A9"/>
</svg>
