<svg width="15" height="15" viewBox="0 0 15 15" fill="none" xmlns="http://www.w3.org/2000/svg">
<g clip-path="url(#clip0_339_90)">
<path d="M7.48369 6.82849L7.01116 8.16882C6.7592 9.00085 6.78062 9.2633 6.90842 9.45689C6.93996 9.50447 7.02622 9.66021 7.14678 10.0762C7.3218 10.6784 7.47593 11.5876 7.47969 11.6311C7.45438 12.1868 7.46807 12.7757 7.51831 13.3395H1.28211C0.576976 13.3395 0 12.8233 0 12.1926V1.81313C0 1.18237 0.576943 0.666157 1.28211 0.666157H10.8784C9.4087 2.06083 7.95242 4.70725 7.48369 6.82849V6.82849ZM14.2578 0.326489C16.0164 1.72978 14.2701 4.93788 12.6672 7.19611C11.5018 7.53118 10.1433 8.27119 10.1433 8.27119C10.1433 8.27119 10.2563 8.21751 10.6757 8.06016C10.96 7.95326 11.8088 7.77273 12.3257 7.66729C11.4628 8.83114 10.7243 9.64577 10.7243 9.64577C10.7243 9.64577 9.21874 10.1931 8.75312 11.4663C9.02299 10.1082 9.4708 8.69069 10.1027 7.18014C10.6671 5.83125 12.5524 2.18863 13.9453 1.06331C12.4171 2.15294 10.7472 4.43456 9.5436 7.27829C8.83123 9.16207 8.44569 10.9695 8.3829 12.4682C8.34141 13.4487 8.43616 14.2989 8.66944 14.9477L8.56159 15.0002C8.33276 14.469 8.12276 13.5355 8.173 11.6225C8.16547 11.5371 8.16098 11.4817 8.16098 11.4817C8.16098 11.4817 8.02205 10.6447 7.82224 9.95719C7.73374 9.65201 7.633 9.37606 7.52725 9.21613C7.47275 9.1336 7.53314 8.7946 7.68524 8.29248C7.94279 8.69362 8.22065 9.12789 8.32739 9.4832C8.32739 9.4832 8.12158 8.53603 7.78389 7.98329C7.8579 7.75984 7.94633 7.51287 8.04639 7.24881C8.29546 7.63846 8.54948 8.00921 8.65081 8.38055C8.53998 7.90615 8.38995 7.43368 8.15623 6.96531C8.58102 4.98789 9.94834 2.39863 11.4214 1.00076C12.2076 0.250258 13.2912 -0.421431 14.2578 0.326489V0.326489Z" fill="#58B5A9"/>
</g>
<defs>
<clipPath id="clip0_339_90">
<rect width="15" height="15" fill="white"/>
</clipPath>
</defs>
</svg>
