<svg width="24" height="24" viewBox="0 0 24 24" fill="none" xmlns="http://www.w3.org/2000/svg">
<path d="M12.1214 4.0752C10.9763 3.9312 9.8019 0 9.80991 0C8.97447 0.2208 2.23491 2.004 4.84799 3.5712C9.21202 6.1872 9.01718 11.4696 2.5472 15.8832C-6.52251 22.0704 11.5235 23.8584 11.7797 23.4672C16.2532 16.6944 14.1499 11.7048 14.1499 11.7048C14.1499 11.7048 19.3974 10.1736 23.9323 9.552C24.5195 9.4752 21.3459 5.2464 12.1214 4.0752ZM19.2506 6.4848C19.2506 6.4848 16.0156 7.2936 14.5156 7.9944C14.5156 7.9944 15.3537 5.6496 15.3243 5.2464C15.3243 5.244 18.5593 6.0528 19.2506 6.4848ZM13.7949 7.9944C13.7949 7.9944 12.3109 7.212 11.7797 7.0776L14.9346 5.2464C14.9346 5.244 14.9346 6.2424 13.7949 7.9944ZM11.1285 12.5472L13.7949 13.9752C13.4052 14.3256 10.8455 15.4032 10.8455 15.4032C11.2246 14.5944 11.1285 12.5472 11.1285 12.5472ZM11.5475 12.4392L13.8536 11.7336C14.0645 12.456 14.0031 13.6512 14.0031 13.6512C13.3465 13.4088 11.5475 12.4392 11.5475 12.4392ZM6.03576 17.1552C6.03576 17.1552 8.10433 14.004 8.0296 13.6536C8.0296 13.6536 8.26448 14.5152 9.78589 15.756C9.78589 15.7536 8.67286 16.4256 6.03576 17.1552ZM9.63642 16.3728C9.63642 16.3728 9.22537 18.0912 8.23512 19.4304C8.23512 19.4304 6.78578 18.9048 5.73681 17.6664C5.73414 17.6664 9.25206 16.6152 9.63642 16.3728ZM10.3144 7.4016C10.3144 7.4016 9.13996 8.4264 8.4273 9.0192C8.4273 9.0192 8.39794 6.7824 8.23512 6.7032C8.23512 6.7008 9.67645 7.0224 10.3144 7.4016ZM8.42463 6.0528L10.4398 4.4904C10.4398 4.4904 10.9496 5.0016 10.8295 6.78C10.8295 6.78 8.98782 6.1608 8.42463 6.0528ZM10.5893 7.8576C10.5893 7.8576 10.261 9.3384 9.48161 10.2288C9.48161 10.2288 8.75026 9.6624 8.4273 9.4752C8.42463 9.4752 10.3811 8.0208 10.5893 7.8576ZM9.27341 11.2272C9.27341 11.2272 9.83927 11.5512 9.78055 12.36C9.78055 12.36 6.00373 13.896 5.4352 14.2464C5.4352 14.244 9.06522 11.5488 9.27341 11.2272ZM8.42463 13.4904L10.4692 12.7368C10.4692 12.7368 10.7681 14.004 10.1089 15.4032C10.1089 15.4032 9.07323 14.8608 8.42463 13.4904ZM10.3144 12.2232C10.3144 12.2232 10.0822 10.848 9.78055 10.6344C9.78055 10.6344 11.0991 10.068 13.0476 9.0456C13.0476 9.0432 10.5759 11.8728 10.3144 12.2232ZM10.4692 9.7728C10.4692 9.7728 11.1872 7.9944 11.1578 7.5912L13.0449 8.508L10.4692 9.7728ZM14.3047 5.1384C14.0939 5.22 11.1578 6.7008 11.1578 6.7008C11.6062 5.4624 10.8455 4.4904 10.8455 4.4904L14.3047 5.1384ZM11.1578 3.9792L9.05988 3.684L10.6187 2.8224L11.1578 3.9792ZM6.54556 1.608C6.72439 1.4736 9.69247 0.288 9.69247 0.288C9.69247 0.288 10.5306 2.1744 10.261 2.1744C9.99141 2.1744 6.36406 1.7424 6.54556 1.608ZM10.3144 2.5248L8.42463 3.5736H7.95219C7.95219 3.5736 6.21459 1.9848 6.1532 1.8216C6.15587 1.824 9.85795 2.5776 10.3144 2.5248ZM5.79553 2.0112L7.11409 3.3984C7.11409 3.3984 5.04551 2.9808 4.89604 2.82C4.74657 2.6592 5.79553 2.0112 5.79553 2.0112ZM5.58467 3.5736L6.90322 3.9768L7.38367 5.4048C7.38367 5.4072 6.12384 3.924 5.58467 3.5736ZM7.2342 3.9792L10.1115 4.356L7.95486 5.8104C7.95219 5.4888 7.2342 3.9792 7.2342 3.9792ZM8.0723 10.2288C8.0723 10.2288 8.58211 10.3632 8.82233 10.632C8.82233 10.632 7.95219 11.3256 7.2342 11.7336C7.2342 11.7336 8.04294 10.4712 8.0723 10.2288ZM6.27331 12.8304C6.27331 12.8304 7.37566 11.9136 8.67019 11.4168L5.07487 14.244L6.27331 12.8304ZM7.0527 13.9752C7.0527 13.9752 6.18256 16.1856 5.31509 16.9656C5.31509 16.9656 4.9254 16.5336 4.86668 14.9448C4.86668 14.9448 6.69503 14.0832 7.0527 13.9752ZM4.11665 15.2424C4.11665 15.2424 4.05793 16.104 4.71721 17.4792C4.71721 17.4792 1.36211 18.4224 0.822941 18.4224C0.820272 18.42 1.18061 16.5072 4.11665 15.2424ZM0.820272 18.6624C1.80785 18.6624 4.56506 17.9616 4.56506 17.9616C4.41559 18.4464 2.31766 20.8992 2.31766 20.8992C0.670801 19.8744 0.820272 18.6624 0.820272 18.6624ZM2.55788 21.0336L5.07487 18.1248C5.07487 18.1248 6.18256 19.068 7.381 19.6608L2.68866 21.1968L2.55788 21.0336ZM2.9796 21.2496L7.744 20.0904L6.03576 22.4064C6.03576 22.4088 4.08729 22.1664 2.9796 21.2496ZM8.42463 20.0904C8.42463 20.0904 10.4131 20.8728 12.4497 20.8992C12.4497 20.8992 7.65325 22.56 6.27331 22.62C6.27331 22.62 8.44865 20.2536 8.42463 20.0904ZM11.5475 23.3784C11.5475 23.3784 8.2111 23.1288 7.23153 22.62C7.23153 22.62 10.1569 22.1136 12.5751 21.1968C12.5751 21.1968 11.8491 23.0544 11.5475 23.3784ZM12.5751 20.7648C12.5751 20.7648 9.20936 20.2248 8.67019 19.6608C8.67019 19.6608 13.3438 17.964 13.5093 17.6664C13.512 17.6664 13.1383 20.1312 12.5751 20.7648ZM8.9718 19.0944L10.4692 16.2384C10.4692 16.2384 12.6872 17.2896 13.5093 17.4504C13.512 17.4504 9.72183 19.1208 8.9718 19.0944ZM13.6455 17.1552C12.2975 16.86 10.8482 15.8616 10.8482 15.8616C11.4941 15.6984 14.0138 14.352 14.0138 14.352C14.2006 15.8064 13.6455 17.1552 13.6455 17.1552ZM11.0083 11.9808C11.0083 11.9808 13.6455 9.3408 13.7949 9.0168C13.7949 9.0168 15.4418 9.744 16.013 10.5264C16.013 10.5264 11.705 11.7384 11.0083 11.9808ZM14.5156 8.3712C14.5156 8.3712 19.1012 6.8088 19.5496 6.7824C19.5496 6.7824 18.4099 8.6952 16.5228 10.3656C16.5228 10.3632 15.4952 8.8824 14.5156 8.3712ZM17.3315 10.2288C17.3315 10.2288 19.6083 7.8576 20.0594 6.78C20.0594 6.78 23.0862 8.5848 23.5346 9.42C23.5346 9.4224 18.5006 9.7992 17.3315 10.2288Z" fill="#58B5A9"/>
</svg>
