<svg width="22" height="21" viewBox="0 0 22 21" fill="none" xmlns="http://www.w3.org/2000/svg">
<path d="M0.5 0.375V1.5V20.625H21.5V0.375H0.5ZM2.83333 2.625H19.1667V18.375H2.83333V2.625ZM5.16667 8.25V9.88257H7.58659V17.25H9.57812V9.88257H12.0482V8.25H5.16667ZM15.1471 8.27197C13.7655 8.36914 12.3854 8.9269 12.3854 10.7725C12.3854 13.4871 16.1771 13.486 16.1771 14.71C16.1771 14.8258 16.2301 15.6702 14.8919 15.6702C13.5538 15.6702 12.4355 14.8594 12.4355 14.8594V16.8303C12.4355 16.8303 18.2712 18.6492 18.2712 14.5452C18.2712 11.88 14.443 12.0131 14.443 10.689C14.443 10.176 14.823 9.6958 15.8695 9.6958C16.916 9.6958 17.8428 10.2913 17.8428 10.2913L17.9111 8.53784C17.9111 8.53784 16.5288 8.1748 15.1471 8.27197Z" fill="#58B5A9"/>
</svg>
